<svg width="824" height="824" viewBox="0 0 824 824" fill="none" xmlns="http://www.w3.org/2000/svg">
<g id="Icon artwork">
<mask id="mask0_27_179" style="mask-type:luminance" maskUnits="userSpaceOnUse" x="0" y="0" width="824" height="824">
<path id="Mask" fill-rule="evenodd" clip-rule="evenodd" d="M824 256.627C824 246.845 824.004 237.062 823.944 227.279C823.895 219.038 823.8 210.799 823.576 202.562C823.092 184.609 822.033 166.502 818.84 148.749C815.602 130.741 810.314 113.98 801.981 97.6166C793.789 81.5337 783.088 66.8168 770.32 54.0578C757.555 41.2989 742.835 30.6049 726.746 22.4179C710.366 14.0829 693.587 8.79697 675.558 5.55998C657.803 2.37199 639.691 1.315 621.738 0.829997C613.495 0.606998 605.253 0.512998 597.008 0.461998C587.22 0.401999 577.432 0.406999 567.644 0.406999L453.997 0H368.997L257.361 0.406999C247.554 0.406999 237.747 0.401999 227.94 0.461998C219.678 0.512998 211.42 0.606998 203.162 0.829997C185.167 1.315 167.014 2.37299 149.217 5.56498C131.164 8.80097 114.36 14.0849 97.9583 22.4139C81.8354 30.6019 67.0825 41.2969 54.2906 54.0578C41.5007 66.8158 30.7798 81.5297 22.5728 97.6096C14.2169 113.981 8.91893 130.752 5.67296 148.77C2.47698 166.516 1.41799 184.617 0.930993 202.562C0.708995 210.8 0.612996 219.039 0.562996 227.279C0.502996 237.063 0 249.216 0 258.999L0.00299998 369.089L0 454.998L0.507996 567.427C0.507996 577.223 0.503996 587.019 0.562996 596.815C0.612996 605.067 0.708995 613.317 0.931993 621.566C1.41799 639.542 2.47898 657.675 5.67796 675.452C8.92293 693.485 14.2199 710.269 22.5688 726.653C30.7768 742.759 41.4997 757.495 54.2906 770.272C67.0815 783.049 81.8304 793.757 97.9503 801.956C114.362 810.302 131.174 815.595 149.238 818.836C167.027 822.029 185.174 823.088 203.162 823.573C211.42 823.796 219.679 823.891 227.941 823.941C237.748 824.001 247.554 823.997 257.361 823.997L370.006 824H455.217L567.644 823.996C577.432 823.996 587.22 824.001 597.008 823.941C605.253 823.891 613.495 823.796 621.738 823.573C639.698 823.087 657.816 822.027 675.579 818.832C693.597 815.591 710.368 810.3 726.739 801.959C742.83 793.761 757.554 783.051 770.32 770.272C783.086 757.497 793.786 742.763 801.978 726.66C810.316 710.268 815.604 693.475 818.844 675.431C822.034 657.661 823.092 639.535 823.577 621.566C823.8 613.316 823.895 605.066 823.944 596.815C824.005 587.019 824 577.223 824 567.427C824 567.427 823.994 456.983 823.994 454.998V368.999C823.994 367.533 824 256.627 824 256.627" fill="white"/>
</mask>
<g mask="url(#mask0_27_179)">
<g id="PLACE HERE">
<g id="Frame 3" clip-path="url(#clip0_27_179)">
<g id="Screen Bezel">
<rect x="40" y="40" width="744" height="744" rx="372" stroke="black" stroke-width="30"/>
</g>
<g id="Content">
<rect x="55" y="55" width="714" height="714" rx="357" fill="black"/>
<g id="Border Light">
<g id="Border Light_2" filter="url(#filter0_f_27_179)">
<rect x="47.5" y="47.5" width="729" height="729" rx="364.5" stroke="#0080FF" stroke-width="15" style="mix-blend-mode:screen"/>
</g>
<g id="Border Light_3" opacity="0.5" filter="url(#filter1_f_27_179)">
<rect x="50" y="50" width="724" height="724" rx="362" stroke="#00A4FF" stroke-width="10" style="mix-blend-mode:screen"/>
</g>
<g id="Border Light_4" filter="url(#filter2_f_27_179)">
<rect x="55" y="55" width="714" height="714" rx="357" stroke="#00A4FF" stroke-opacity="0.5" stroke-width="12" style="mix-blend-mode:screen"/>
</g>
<g id="Border Light_5" filter="url(#filter3_f_27_179)">
<rect x="52.5" y="52.5" width="719" height="719" rx="359.5" stroke="#7BD0FF" stroke-width="5"/>
</g>
<g id="Border">
<rect x="55" y="55" width="714" height="714" rx="357" stroke="#7BD0FF" stroke-width="5"/>
</g>
</g>
<g id="Frame 5">
<g id="Ellipse 1" filter="url(#filter4_f_27_179)">
<circle cx="412.5" cy="411.5" r="251.5" stroke="url(#paint0_linear_27_179)" stroke-width="0.919505"/>
</g>
<g id="Ellipse 2" filter="url(#filter5_f_27_179)">
<circle cx="413" cy="412" r="318" stroke="url(#paint1_linear_27_179)" stroke-width="0.919505"/>
</g>
</g>
<g id="Frame 7">
<g id="Frame 6" opacity="0.75" filter="url(#filter6_f_27_179)">
<g id="Union">
<mask id="path-14-inside-1_27_179" fill="white">
<path d="M256 399.631C256 392.796 259.491 386.433 265.257 382.761L401.757 295.841C408.311 291.667 416.689 291.667 423.243 295.841L559.743 382.761C565.509 386.433 569 392.795 569 399.631V450.369C569 457.205 565.509 463.567 559.743 467.239L423.243 554.159C416.689 558.333 408.311 558.333 401.757 554.159L265.257 467.239C259.491 463.567 256 457.205 256 450.369V399.631Z"/>
</mask>
<path d="M256 399.631C256 392.796 259.491 386.433 265.257 382.761L401.757 295.841C408.311 291.667 416.689 291.667 423.243 295.841L559.743 382.761C565.509 386.433 569 392.795 569 399.631V450.369C569 457.205 565.509 463.567 559.743 467.239L423.243 554.159C416.689 558.333 408.311 558.333 401.757 554.159L265.257 467.239C259.491 463.567 256 457.205 256 450.369V399.631Z" stroke="#356EFE" stroke-width="80" stroke-linejoin="round" mask="url(#path-14-inside-1_27_179)"/>
</g>
<g id="Union_2">
<mask id="path-15-inside-2_27_179" fill="white">
<path d="M122 368.934C122 362.079 125.51 355.702 131.301 352.036L401.801 180.774C408.334 176.638 416.666 176.638 423.199 180.774L693.699 352.036C699.49 355.702 703 362.079 703 368.933V481.067C703 487.921 699.49 494.298 693.699 497.964L423.199 669.226C416.666 673.362 408.334 673.362 401.801 669.226L131.301 497.964C125.51 494.298 122 487.921 122 481.067V368.934Z"/>
</mask>
<path d="M122 368.934C122 362.079 125.51 355.702 131.301 352.036L401.801 180.774C408.334 176.638 416.666 176.638 423.199 180.774L693.699 352.036C699.49 355.702 703 362.079 703 368.933V481.067C703 487.921 699.49 494.298 693.699 497.964L423.199 669.226C416.666 673.362 408.334 673.362 401.801 669.226L131.301 497.964C125.51 494.298 122 487.921 122 481.067V368.934Z" stroke="#356EFE" stroke-width="80" stroke-linejoin="round" mask="url(#path-15-inside-2_27_179)"/>
</g>
</g>
<g id="Frame 7_2" filter="url(#filter7_f_27_179)">
<g id="Union_3">
<mask id="path-16-outside-3_27_179" maskUnits="userSpaceOnUse" x="118" y="173" width="589" height="504" fill="black">
<rect fill="white" x="118" y="173" width="589" height="504"/>
<path d="M122 368.934C122 362.079 125.51 355.702 131.301 352.036L401.801 180.774C408.334 176.638 416.666 176.638 423.199 180.774L693.699 352.036C699.49 355.702 703 362.079 703 368.933V481.067C703 487.921 699.49 494.298 693.699 497.964L423.199 669.226C416.666 673.362 408.334 673.362 401.801 669.226L131.301 497.964C125.51 494.298 122 487.921 122 481.067V368.934Z"/>
</mask>
<path d="M122 368.934C122 362.079 125.51 355.702 131.301 352.036L401.801 180.774C408.334 176.638 416.666 176.638 423.199 180.774L693.699 352.036C699.49 355.702 703 362.079 703 368.933V481.067C703 487.921 699.49 494.298 693.699 497.964L423.199 669.226C416.666 673.362 408.334 673.362 401.801 669.226L131.301 497.964C125.51 494.298 122 487.921 122 481.067V368.934Z" stroke="#0073FF" stroke-width="8" stroke-linejoin="round" mask="url(#path-16-outside-3_27_179)"/>
</g>
</g>
<g id="Frame 9" opacity="0.75" filter="url(#filter8_f_27_179)">
<g id="Union_4">
<mask id="path-17-outside-4_27_179" maskUnits="userSpaceOnUse" x="120" y="175" width="585" height="500" fill="black">
<rect fill="white" x="120" y="175" width="585" height="500"/>
<path d="M122 368.934C122 362.079 125.51 355.702 131.301 352.036L401.801 180.774C408.334 176.638 416.666 176.638 423.199 180.774L693.699 352.036C699.49 355.702 703 362.079 703 368.933V481.067C703 487.921 699.49 494.298 693.699 497.964L423.199 669.226C416.666 673.362 408.334 673.362 401.801 669.226L131.301 497.964C125.51 494.298 122 487.921 122 481.067V368.934Z"/>
</mask>
<path d="M122 368.934C122 362.079 125.51 355.702 131.301 352.036L401.801 180.774C408.334 176.638 416.666 176.638 423.199 180.774L693.699 352.036C699.49 355.702 703 362.079 703 368.933V481.067C703 487.921 699.49 494.298 693.699 497.964L423.199 669.226C416.666 673.362 408.334 673.362 401.801 669.226L131.301 497.964C125.51 494.298 122 487.921 122 481.067V368.934Z" stroke="#7BD0FF" stroke-width="4" stroke-linejoin="round" mask="url(#path-17-outside-4_27_179)"/>
</g>
</g>
<g id="Frame 10" filter="url(#filter9_f_27_179)">
<g id="Union_5">
<mask id="path-18-outside-5_27_179" maskUnits="userSpaceOnUse" x="117" y="172" width="591" height="506" fill="black">
<rect fill="white" x="117" y="172" width="591" height="506"/>
<path d="M122 368.934C122 362.079 125.51 355.702 131.301 352.036L401.801 180.774C408.334 176.638 416.666 176.638 423.199 180.774L693.699 352.036C699.49 355.702 703 362.079 703 368.933V481.067C703 487.921 699.49 494.298 693.699 497.964L423.199 669.226C416.666 673.362 408.334 673.362 401.801 669.226L131.301 497.964C125.51 494.298 122 487.921 122 481.067V368.934Z"/>
</mask>
<path d="M122 368.934C122 362.079 125.51 355.702 131.301 352.036L401.801 180.774C408.334 176.638 416.666 176.638 423.199 180.774L693.699 352.036C699.49 355.702 703 362.079 703 368.933V481.067C703 487.921 699.49 494.298 693.699 497.964L423.199 669.226C416.666 673.362 408.334 673.362 401.801 669.226L131.301 497.964C125.51 494.298 122 487.921 122 481.067V368.934Z" stroke="#DEEBFF" stroke-width="10" stroke-linejoin="round" mask="url(#path-18-outside-5_27_179)"/>
</g>
</g>
<g id="Frame 4">
<g id="Union_6">
<mask id="path-19-inside-6_27_179" fill="white">
<path d="M256 399.631C256 392.796 259.491 386.433 265.257 382.761L401.757 295.841C408.311 291.667 416.689 291.667 423.243 295.841L559.743 382.761C565.509 386.433 569 392.795 569 399.631V450.369C569 457.205 565.509 463.567 559.743 467.239L423.243 554.159C416.689 558.333 408.311 558.333 401.757 554.159L265.257 467.239C259.491 463.567 256 457.205 256 450.369V399.631Z"/>
</mask>
<path d="M256 399.631C256 392.796 259.491 386.433 265.257 382.761L401.757 295.841C408.311 291.667 416.689 291.667 423.243 295.841L559.743 382.761C565.509 386.433 569 392.795 569 399.631V450.369C569 457.205 565.509 463.567 559.743 467.239L423.243 554.159C416.689 558.333 408.311 558.333 401.757 554.159L265.257 467.239C259.491 463.567 256 457.205 256 450.369V399.631Z" stroke="#7BD0FF" stroke-width="80" stroke-linejoin="round" mask="url(#path-19-inside-6_27_179)"/>
</g>
<g id="Union_7">
<mask id="path-20-inside-7_27_179" fill="white">
<path d="M122 368.934C122 362.079 125.51 355.702 131.301 352.036L401.801 180.774C408.334 176.638 416.666 176.638 423.199 180.774L693.699 352.036C699.49 355.702 703 362.079 703 368.933V481.067C703 487.921 699.49 494.298 693.699 497.964L423.199 669.226C416.666 673.362 408.334 673.362 401.801 669.226L131.301 497.964C125.51 494.298 122 487.921 122 481.067V368.934Z"/>
</mask>
<path d="M122 368.934C122 362.079 125.51 355.702 131.301 352.036L401.801 180.774C408.334 176.638 416.666 176.638 423.199 180.774L693.699 352.036C699.49 355.702 703 362.079 703 368.933V481.067C703 487.921 699.49 494.298 693.699 497.964L423.199 669.226C416.666 673.362 408.334 673.362 401.801 669.226L131.301 497.964C125.51 494.298 122 487.921 122 481.067V368.934Z" stroke="#7BD0FF" stroke-width="80" stroke-linejoin="round" mask="url(#path-20-inside-7_27_179)"/>
</g>
</g>
<g id="Frame 8" filter="url(#filter10_f_27_179)">
<g id="Union_8">
<mask id="path-21-outside-8_27_179" maskUnits="userSpaceOnUse" x="120" y="175" width="585" height="500" fill="black">
<rect fill="white" x="120" y="175" width="585" height="500"/>
<path d="M124 369.474C124 362.617 127.514 356.237 133.31 352.571L401.81 182.761C408.339 178.632 416.661 178.632 423.19 182.761L691.69 352.571C697.486 356.237 701 362.616 701 369.474V480.526C701 487.384 697.486 493.763 691.69 497.429L423.19 667.239C416.661 671.368 408.339 671.368 401.81 667.239L133.31 497.429C127.514 493.763 124 487.384 124 480.526V369.474Z"/>
</mask>
<path d="M124 369.474C124 362.617 127.514 356.237 133.31 352.571L401.81 182.761C408.339 178.632 416.661 178.632 423.19 182.761L691.69 352.571C697.486 356.237 701 362.616 701 369.474V480.526C701 487.384 697.486 493.763 691.69 497.429L423.19 667.239C416.661 671.368 408.339 671.368 401.81 667.239L133.31 497.429C127.514 493.763 124 487.384 124 480.526V369.474Z" stroke="#7BD0FF" stroke-width="8" stroke-linejoin="round" mask="url(#path-21-outside-8_27_179)"/>
</g>
</g>
<g id="Frame 12" filter="url(#filter11_f_27_179)">
<g id="Union_9">
<mask id="path-22-outside-9_27_179" maskUnits="userSpaceOnUse" x="212.23" y="253.739" width="401" height="342" fill="black">
<rect fill="white" x="212.23" y="253.739" width="401" height="342"/>
<path d="M215.23 387.033C215.23 382.344 217.633 377.981 221.596 375.475L405.19 259.362C409.654 256.539 415.346 256.539 419.81 259.362L603.404 375.475C607.367 377.981 609.77 382.344 609.77 387.033V462.967C609.77 467.656 607.367 472.019 603.404 474.525L419.81 590.638C415.346 593.461 409.654 593.461 405.19 590.638L221.596 474.525C217.633 472.019 215.23 467.656 215.23 462.967V387.033Z"/>
</mask>
<path d="M215.23 387.033C215.23 382.344 217.633 377.981 221.596 375.475L405.19 259.362C409.654 256.539 415.346 256.539 419.81 259.362L603.404 375.475C607.367 377.981 609.77 382.344 609.77 387.033V462.967C609.77 467.656 607.367 472.019 603.404 474.525L419.81 590.638C415.346 593.461 409.654 593.461 405.19 590.638L221.596 474.525C217.633 472.019 215.23 467.656 215.23 462.967V387.033Z" stroke="#00A4FF" stroke-width="5.47023" stroke-linejoin="round" mask="url(#path-22-outside-9_27_179)"/>
</g>
</g>
<g id="Frame 11" filter="url(#filter12_f_27_179)">
<g id="Union_10">
<mask id="path-23-outside-10_27_179" maskUnits="userSpaceOnUse" x="212.23" y="253.739" width="401" height="342" fill="black">
<rect fill="white" x="212.23" y="253.739" width="401" height="342"/>
<path d="M215.23 387.033C215.23 382.344 217.633 377.981 221.596 375.475L405.19 259.362C409.654 256.539 415.346 256.539 419.81 259.362L603.404 375.475C607.367 377.981 609.77 382.344 609.77 387.033V462.967C609.77 467.656 607.367 472.019 603.404 474.525L419.81 590.638C415.346 593.461 409.654 593.461 405.19 590.638L221.596 474.525C217.633 472.019 215.23 467.656 215.23 462.967V387.033Z"/>
</mask>
<path d="M215.23 387.033C215.23 382.344 217.633 377.981 221.596 375.475L405.19 259.362C409.654 256.539 415.346 256.539 419.81 259.362L603.404 375.475C607.367 377.981 609.77 382.344 609.77 387.033V462.967C609.77 467.656 607.367 472.019 603.404 474.525L419.81 590.638C415.346 593.461 409.654 593.461 405.19 590.638L221.596 474.525C217.633 472.019 215.23 467.656 215.23 462.967V387.033Z" stroke="white" stroke-width="5.47023" stroke-linejoin="round" mask="url(#path-23-outside-10_27_179)"/>
</g>
</g>
</g>
<g id="Rectangle 1">
<rect x="24" y="16" width="776" height="793" rx="388" fill="url(#paint2_radial_27_179)" style="mix-blend-mode:overlay"/>
</g>
</g>
<g id="Device Frame">
<mask id="mask1_27_179" style="mask-type:alpha" maskUnits="userSpaceOnUse" x="0" y="0" width="824" height="824">
<g id="Device Frame Mask">
<rect x="12.5" y="12.5" width="799" height="799" rx="399.5" stroke="white" stroke-width="25"/>
</g>
</mask>
<g mask="url(#mask1_27_179)">
<g id="Base + Edges">
<rect width="824" height="824" rx="400" fill="black"/>
<rect width="824" height="824" rx="400" fill="url(#paint3_linear_27_179)"/>
<g id="Outer Bottom Edge" filter="url(#filter13_f_27_179)">
<rect x="2" y="8" width="820" height="812" rx="406" stroke="url(#paint4_linear_27_179)" stroke-opacity="0.75" stroke-width="8" style="mix-blend-mode:overlay"/>
</g>
<g id="Inner Bottom Edge" filter="url(#filter14_f_27_179)">
<rect x="26" y="8" width="772" height="791" rx="386" stroke="url(#paint5_linear_27_179)" stroke-width="8" style="mix-blend-mode:overlay"/>
</g>
<g id="Inner Top Edge" filter="url(#filter15_f_27_179)">
<rect x="798" y="824" width="772" height="799" rx="386" transform="rotate(180 798 824)" stroke="url(#paint6_linear_27_179)" stroke-opacity="0.75" stroke-width="8" style="mix-blend-mode:overlay"/>
</g>
<g id="Outer Top Edge" filter="url(#filter16_f_27_179)">
<rect x="824" y="821" width="824" height="821" rx="410.5" transform="rotate(180 824 821)" stroke="url(#paint7_linear_27_179)" stroke-width="8" style="mix-blend-mode:overlay"/>
</g>
</g>
<g id="Rectangle 1_2" filter="url(#filter17_f_27_179)">
<rect x="23" y="22" width="778" height="780" rx="389" fill="#0095FF" fill-opacity="0.5" style="mix-blend-mode:soft-light"/>
</g>
</g>
</g>
</g>
</g>
</g>
</g>
<defs>
<filter id="filter0_f_27_179" x="-10" y="-10" width="844" height="844" filterUnits="userSpaceOnUse" color-interpolation-filters="sRGB">
<feFlood flood-opacity="0" result="BackgroundImageFix"/>
<feBlend mode="normal" in="SourceGraphic" in2="BackgroundImageFix" result="shape"/>
<feGaussianBlur stdDeviation="25" result="effect1_foregroundBlur_27_179"/>
</filter>
<filter id="filter1_f_27_179" x="-5" y="-5" width="834" height="834" filterUnits="userSpaceOnUse" color-interpolation-filters="sRGB">
<feFlood flood-opacity="0" result="BackgroundImageFix"/>
<feBlend mode="normal" in="SourceGraphic" in2="BackgroundImageFix" result="shape"/>
<feGaussianBlur stdDeviation="25" result="effect1_foregroundBlur_27_179"/>
</filter>
<filter id="filter2_f_27_179" x="34" y="34" width="756" height="756" filterUnits="userSpaceOnUse" color-interpolation-filters="sRGB">
<feFlood flood-opacity="0" result="BackgroundImageFix"/>
<feBlend mode="normal" in="SourceGraphic" in2="BackgroundImageFix" result="shape"/>
<feGaussianBlur stdDeviation="7.5" result="effect1_foregroundBlur_27_179"/>
</filter>
<filter id="filter3_f_27_179" x="48" y="48" width="728" height="728" filterUnits="userSpaceOnUse" color-interpolation-filters="sRGB">
<feFlood flood-opacity="0" result="BackgroundImageFix"/>
<feBlend mode="normal" in="SourceGraphic" in2="BackgroundImageFix" result="shape"/>
<feGaussianBlur stdDeviation="1" result="effect1_foregroundBlur_27_179"/>
</filter>
<filter id="filter4_f_27_179" x="158.701" y="157.701" width="507.598" height="507.598" filterUnits="userSpaceOnUse" color-interpolation-filters="sRGB">
<feFlood flood-opacity="0" result="BackgroundImageFix"/>
<feBlend mode="normal" in="SourceGraphic" in2="BackgroundImageFix" result="shape"/>
<feGaussianBlur stdDeviation="0.919505" result="effect1_foregroundBlur_27_179"/>
</filter>
<filter id="filter5_f_27_179" x="92.7012" y="91.7012" width="640.598" height="640.598" filterUnits="userSpaceOnUse" color-interpolation-filters="sRGB">
<feFlood flood-opacity="0" result="BackgroundImageFix"/>
<feBlend mode="normal" in="SourceGraphic" in2="BackgroundImageFix" result="shape"/>
<feGaussianBlur stdDeviation="0.919505" result="effect1_foregroundBlur_27_179"/>
</filter>
<filter id="filter6_f_27_179" x="22" y="77.6715" width="781" height="694.657" filterUnits="userSpaceOnUse" color-interpolation-filters="sRGB">
<feFlood flood-opacity="0" result="BackgroundImageFix"/>
<feBlend mode="normal" in="SourceGraphic" in2="BackgroundImageFix" result="shape"/>
<feGaussianBlur stdDeviation="50" result="effect1_foregroundBlur_27_179"/>
</filter>
<filter id="filter7_f_27_179" x="93" y="148.672" width="639" height="552.657" filterUnits="userSpaceOnUse" color-interpolation-filters="sRGB">
<feFlood flood-opacity="0" result="BackgroundImageFix"/>
<feBlend mode="normal" in="SourceGraphic" in2="BackgroundImageFix" result="shape"/>
<feGaussianBlur stdDeviation="12.5" result="effect1_foregroundBlur_27_179"/>
</filter>
<filter id="filter8_f_27_179" x="105" y="160.672" width="615" height="528.657" filterUnits="userSpaceOnUse" color-interpolation-filters="sRGB">
<feFlood flood-opacity="0" result="BackgroundImageFix"/>
<feBlend mode="normal" in="SourceGraphic" in2="BackgroundImageFix" result="shape"/>
<feGaussianBlur stdDeviation="7.5" result="effect1_foregroundBlur_27_179"/>
</filter>
<filter id="filter9_f_27_179" x="42" y="97.6715" width="741" height="654.657" filterUnits="userSpaceOnUse" color-interpolation-filters="sRGB">
<feFlood flood-opacity="0" result="BackgroundImageFix"/>
<feBlend mode="normal" in="SourceGraphic" in2="BackgroundImageFix" result="shape"/>
<feGaussianBlur stdDeviation="37.5" result="effect1_foregroundBlur_27_179"/>
</filter>
<filter id="filter10_f_27_179" x="118" y="173.664" width="589" height="502.672" filterUnits="userSpaceOnUse" color-interpolation-filters="sRGB">
<feFlood flood-opacity="0" result="BackgroundImageFix"/>
<feBlend mode="normal" in="SourceGraphic" in2="BackgroundImageFix" result="shape"/>
<feGaussianBlur stdDeviation="1" result="effect1_foregroundBlur_27_179"/>
</filter>
<filter id="filter11_f_27_179" x="206.495" y="248.51" width="412.01" height="352.981" filterUnits="userSpaceOnUse" color-interpolation-filters="sRGB">
<feFlood flood-opacity="0" result="BackgroundImageFix"/>
<feBlend mode="normal" in="SourceGraphic" in2="BackgroundImageFix" result="shape"/>
<feGaussianBlur stdDeviation="3" result="effect1_foregroundBlur_27_179"/>
</filter>
<filter id="filter12_f_27_179" x="211.127" y="253.142" width="402.745" height="343.716" filterUnits="userSpaceOnUse" color-interpolation-filters="sRGB">
<feFlood flood-opacity="0" result="BackgroundImageFix"/>
<feBlend mode="normal" in="SourceGraphic" in2="BackgroundImageFix" result="shape"/>
<feGaussianBlur stdDeviation="0.683778" result="effect1_foregroundBlur_27_179"/>
</filter>
<filter id="filter13_f_27_179" x="-4" y="2" width="832" height="824" filterUnits="userSpaceOnUse" color-interpolation-filters="sRGB">
<feFlood flood-opacity="0" result="BackgroundImageFix"/>
<feBlend mode="normal" in="SourceGraphic" in2="BackgroundImageFix" result="shape"/>
<feGaussianBlur stdDeviation="1" result="effect1_foregroundBlur_27_179"/>
</filter>
<filter id="filter14_f_27_179" x="20" y="2" width="784" height="803" filterUnits="userSpaceOnUse" color-interpolation-filters="sRGB">
<feFlood flood-opacity="0" result="BackgroundImageFix"/>
<feBlend mode="normal" in="SourceGraphic" in2="BackgroundImageFix" result="shape"/>
<feGaussianBlur stdDeviation="1" result="effect1_foregroundBlur_27_179"/>
</filter>
<filter id="filter15_f_27_179" x="20" y="19" width="784" height="811" filterUnits="userSpaceOnUse" color-interpolation-filters="sRGB">
<feFlood flood-opacity="0" result="BackgroundImageFix"/>
<feBlend mode="normal" in="SourceGraphic" in2="BackgroundImageFix" result="shape"/>
<feGaussianBlur stdDeviation="1" result="effect1_foregroundBlur_27_179"/>
</filter>
<filter id="filter16_f_27_179" x="-6" y="-6" width="836" height="833" filterUnits="userSpaceOnUse" color-interpolation-filters="sRGB">
<feFlood flood-opacity="0" result="BackgroundImageFix"/>
<feBlend mode="normal" in="SourceGraphic" in2="BackgroundImageFix" result="shape"/>
<feGaussianBlur stdDeviation="1" result="effect1_foregroundBlur_27_179"/>
</filter>
<filter id="filter17_f_27_179" x="13" y="12" width="798" height="800" filterUnits="userSpaceOnUse" color-interpolation-filters="sRGB">
<feFlood flood-opacity="0" result="BackgroundImageFix"/>
<feBlend mode="normal" in="SourceGraphic" in2="BackgroundImageFix" result="shape"/>
<feGaussianBlur stdDeviation="5" result="effect1_foregroundBlur_27_179"/>
</filter>
<linearGradient id="paint0_linear_27_179" x1="412.5" y1="160" x2="412.5" y2="663" gradientUnits="userSpaceOnUse">
<stop stop-color="#7BD0FF"/>
<stop offset="0.49" stop-color="#4A7D99" stop-opacity="0"/>
<stop offset="1" stop-color="#7BD0FF"/>
</linearGradient>
<linearGradient id="paint1_linear_27_179" x1="413" y1="94" x2="413" y2="730" gradientUnits="userSpaceOnUse">
<stop stop-color="#7BD0FF"/>
<stop offset="0.49" stop-color="#4A7D99" stop-opacity="0"/>
<stop offset="1" stop-color="#7BD0FF"/>
</linearGradient>
<radialGradient id="paint2_radial_27_179" cx="0" cy="0" r="1" gradientUnits="userSpaceOnUse" gradientTransform="translate(412 412.5) rotate(90) scale(396.5 388)">
<stop offset="0.333453" stop-color="#999999"/>
<stop offset="0.79113" stop-color="white"/>
</radialGradient>
<linearGradient id="paint3_linear_27_179" x1="412" y1="0" x2="412" y2="824" gradientUnits="userSpaceOnUse">
<stop stop-color="#D9E7EA"/>
<stop offset="0.014968" stop-color="#D3E7EE"/>
<stop offset="0.0604063" stop-color="#CFE1E7"/>
<stop offset="0.5" stop-color="#A6B1B7"/>
<stop offset="0.99" stop-color="#767678"/>
<stop offset="1" stop-color="#737375"/>
</linearGradient>
<linearGradient id="paint4_linear_27_179" x1="412" y1="8" x2="412" y2="820" gradientUnits="userSpaceOnUse">
<stop offset="0.455" stop-color="#282828" stop-opacity="0"/>
<stop offset="0.98014" stop-color="#282828"/>
<stop offset="1" stop-color="#232323"/>
</linearGradient>
<linearGradient id="paint5_linear_27_179" x1="412" y1="8" x2="412" y2="799" gradientUnits="userSpaceOnUse">
<stop offset="0.59" stop-color="white" stop-opacity="0"/>
<stop offset="0.9826" stop-color="white"/>
<stop offset="1" stop-color="#F1F2F7"/>
</linearGradient>
<linearGradient id="paint6_linear_27_179" x1="1184" y1="824" x2="1184" y2="1623" gradientUnits="userSpaceOnUse">
<stop offset="0.305" stop-color="#465153" stop-opacity="0"/>
<stop offset="0.887655" stop-color="#557D8C"/>
<stop offset="1" stop-color="#3A646C"/>
</linearGradient>
<linearGradient id="paint7_linear_27_179" x1="1236" y1="821" x2="1236" y2="1642" gradientUnits="userSpaceOnUse">
<stop offset="0.72" stop-color="white" stop-opacity="0"/>
<stop offset="0.9826" stop-color="white"/>
<stop offset="1" stop-color="#F1F2F7"/>
</linearGradient>
<clipPath id="clip0_27_179">
<rect width="824" height="824" fill="white"/>
</clipPath>
</defs>
</svg>
