<svg width="357" height="39" viewBox="0 0 357 39" fill="none" xmlns="http://www.w3.org/2000/svg">
<path id="Martin Plaza" d="M0.460938 38V4.17969H14.3828L24.4141 25.4141H24.5781L34.5859 4.17969H48.5078V38H37.9141V18.2188H33.625L41.0312 10.625L28.2344 38H20.7344L7.9375 10.625L15.3438 18.2188H11.0781V38H0.460938ZM62.8516 38.3516C60.5703 38.3516 58.5938 38.0391 56.9219 37.4141C55.2656 36.7734 53.9766 35.8594 53.0547 34.6719C52.1328 33.4688 51.6719 32.0234 51.6719 30.3359V30.3125C51.6719 28.7656 52.0859 27.4219 52.9141 26.2812C53.7578 25.125 55.0859 24.2188 56.8984 23.5625C58.7109 22.9062 61.0781 22.5547 64 22.5078L78.5312 22.2266V27.2656L66.0391 27.5469C64.8828 27.5781 64.0312 27.7656 63.4844 28.1094C62.9531 28.4531 62.6875 28.9375 62.6875 29.5625V29.5859C62.6875 30.3828 63.0547 30.9688 63.7891 31.3438C64.5391 31.7188 65.5234 31.9062 66.7422 31.9062C67.9922 31.9062 69.0625 31.75 69.9531 31.4375C70.8594 31.1094 71.5547 30.6484 72.0391 30.0547C72.5391 29.4453 72.7891 28.7344 72.7891 27.9219V21.8047C72.7891 20.8359 72.3906 20.0703 71.5938 19.5078C70.7969 18.9453 69.6328 18.6641 68.1016 18.6641C66.7891 18.6641 65.7656 18.8594 65.0312 19.25C64.3125 19.625 63.8594 20.125 63.6719 20.75L63.6016 20.9375H53.0547L53.1016 20.6562C53.4453 18.875 54.2266 17.3125 55.4453 15.9688C56.6797 14.6094 58.3672 13.5547 60.5078 12.8047C62.6641 12.0391 65.2969 11.6562 68.4062 11.6562C71.6562 11.6562 74.4531 12.0625 76.7969 12.875C79.1562 13.6875 80.9688 14.8594 82.2344 16.3906C83.5 17.9219 84.1328 19.7656 84.1328 21.9219V38H72.7891V34.0859H72.6016C72.0078 34.9766 71.2422 35.7422 70.3047 36.3828C69.3828 37.0234 68.2891 37.5156 67.0234 37.8594C65.7734 38.1875 64.3828 38.3516 62.8516 38.3516ZM88.0234 38V12.3125L99.3906 12.4062V17.7031H99.5547C100.008 15.7656 100.867 14.2969 102.133 13.2969C103.414 12.2812 105.055 11.7734 107.055 11.7734C107.555 11.7734 108.039 11.8125 108.508 11.8906C108.992 11.9531 109.43 12.0391 109.82 12.1484V20.75C109.32 20.6094 108.781 20.5078 108.203 20.4453C107.641 20.3672 107.078 20.3281 106.516 20.3281C105.062 20.3281 103.805 20.5703 102.742 21.0547C101.68 21.5234 100.852 22.2734 100.258 23.3047C99.6797 24.3359 99.3906 25.6797 99.3906 27.3359V38H88.0234ZM128.523 38.3516C124.07 38.3516 120.852 37.6328 118.867 36.1953C116.898 34.7422 115.914 32.3359 115.914 28.9766V19.6953H111.203V12.3125H115.914V6.52344H127.258V12.3125H134.453V19.6953H127.258V27.3359C127.258 28.6328 127.609 29.5625 128.312 30.125C129.016 30.6719 130.203 30.9453 131.875 30.9453C132.406 30.9453 132.875 30.9297 133.281 30.8984C133.703 30.8516 134.094 30.8047 134.453 30.7578V37.9297C133.641 38.0547 132.727 38.1562 131.711 38.2344C130.695 38.3125 129.633 38.3516 128.523 38.3516ZM137.805 38V12.3125H149.172V38H137.805ZM143.5 10.1797C141.75 10.1797 140.336 9.71094 139.258 8.77344C138.195 7.83594 137.664 6.67187 137.664 5.28125C137.664 3.89063 138.195 2.72656 139.258 1.78906C140.336 0.851562 141.75 0.382812 143.5 0.382812C145.234 0.382812 146.633 0.851562 147.695 1.78906C148.758 2.72656 149.289 3.89063 149.289 5.28125C149.289 6.67187 148.758 7.83594 147.695 8.77344C146.633 9.71094 145.234 10.1797 143.5 10.1797ZM153.039 38V12.3125H164.406V17.3281H164.57C165.445 15.5469 166.75 14.1562 168.484 13.1562C170.219 12.1562 172.359 11.6562 174.906 11.6562C178.469 11.6562 181.234 12.6172 183.203 14.5391C185.172 16.4453 186.156 19.1797 186.156 22.7422V38H174.812V25.25C174.812 23.4375 174.383 22.0625 173.523 21.125C172.68 20.1719 171.438 19.6953 169.797 19.6953C168.688 19.6953 167.727 19.9219 166.914 20.375C166.117 20.8281 165.5 21.4766 165.062 22.3203C164.625 23.1484 164.406 24.1484 164.406 25.3203V38H153.039ZM207.953 29.0703V21.0312H221.641C223.25 21.0312 224.484 20.6719 225.344 19.9531C226.203 19.2188 226.633 18.1562 226.633 16.7656V16.7188C226.633 15.3281 226.203 14.2734 225.344 13.5547C224.484 12.8359 223.25 12.4766 221.641 12.4766H207.953V4.17969H223.68C226.758 4.17969 229.398 4.70312 231.602 5.75C233.82 6.78125 235.523 8.22656 236.711 10.0859C237.898 11.9453 238.492 14.1172 238.492 16.6016V16.6484C238.492 19.0703 237.898 21.2188 236.711 23.0938C235.523 24.9531 233.82 26.4141 231.602 27.4766C229.398 28.5391 226.758 29.0703 223.68 29.0703H207.953ZM202.07 38V4.17969H213.789V38H202.07ZM241.773 38V4.17969H253.117V38H241.773ZM267.461 38.3516C265.18 38.3516 263.203 38.0391 261.531 37.4141C259.875 36.7734 258.586 35.8594 257.664 34.6719C256.742 33.4688 256.281 32.0234 256.281 30.3359V30.3125C256.281 28.7656 256.695 27.4219 257.523 26.2812C258.367 25.125 259.695 24.2188 261.508 23.5625C263.32 22.9062 265.688 22.5547 268.609 22.5078L283.141 22.2266V27.2656L270.648 27.5469C269.492 27.5781 268.641 27.7656 268.094 28.1094C267.562 28.4531 267.297 28.9375 267.297 29.5625V29.5859C267.297 30.3828 267.664 30.9688 268.398 31.3438C269.148 31.7188 270.133 31.9062 271.352 31.9062C272.602 31.9062 273.672 31.75 274.562 31.4375C275.469 31.1094 276.164 30.6484 276.648 30.0547C277.148 29.4453 277.398 28.7344 277.398 27.9219V21.8047C277.398 20.8359 277 20.0703 276.203 19.5078C275.406 18.9453 274.242 18.6641 272.711 18.6641C271.398 18.6641 270.375 18.8594 269.641 19.25C268.922 19.625 268.469 20.125 268.281 20.75L268.211 20.9375H257.664L257.711 20.6562C258.055 18.875 258.836 17.3125 260.055 15.9688C261.289 14.6094 262.977 13.5547 265.117 12.8047C267.273 12.0391 269.906 11.6562 273.016 11.6562C276.266 11.6562 279.062 12.0625 281.406 12.875C283.766 13.6875 285.578 14.8594 286.844 16.3906C288.109 17.9219 288.742 19.7656 288.742 21.9219V38H277.398V34.0859H277.211C276.617 34.9766 275.852 35.7422 274.914 36.3828C273.992 37.0234 272.898 37.5156 271.633 37.8594C270.383 38.1875 268.992 38.3516 267.461 38.3516ZM292.141 38V32.7266L307.094 19.8594V19.6719H292.586V12.3125H321.25V18.3828L307.891 30.4531V30.6172H321.859V38H292.141ZM335.617 38.3516C333.336 38.3516 331.359 38.0391 329.688 37.4141C328.031 36.7734 326.742 35.8594 325.82 34.6719C324.898 33.4688 324.438 32.0234 324.438 30.3359V30.3125C324.438 28.7656 324.852 27.4219 325.68 26.2812C326.523 25.125 327.852 24.2188 329.664 23.5625C331.477 22.9062 333.844 22.5547 336.766 22.5078L351.297 22.2266V27.2656L338.805 27.5469C337.648 27.5781 336.797 27.7656 336.25 28.1094C335.719 28.4531 335.453 28.9375 335.453 29.5625V29.5859C335.453 30.3828 335.82 30.9688 336.555 31.3438C337.305 31.7188 338.289 31.9062 339.508 31.9062C340.758 31.9062 341.828 31.75 342.719 31.4375C343.625 31.1094 344.32 30.6484 344.805 30.0547C345.305 29.4453 345.555 28.7344 345.555 27.9219V21.8047C345.555 20.8359 345.156 20.0703 344.359 19.5078C343.562 18.9453 342.398 18.6641 340.867 18.6641C339.555 18.6641 338.531 18.8594 337.797 19.25C337.078 19.625 336.625 20.125 336.438 20.75L336.367 20.9375H325.82L325.867 20.6562C326.211 18.875 326.992 17.3125 328.211 15.9688C329.445 14.6094 331.133 13.5547 333.273 12.8047C335.43 12.0391 338.062 11.6562 341.172 11.6562C344.422 11.6562 347.219 12.0625 349.562 12.875C351.922 13.6875 353.734 14.8594 355 16.3906C356.266 17.9219 356.898 19.7656 356.898 21.9219V38H345.555V34.0859H345.367C344.773 34.9766 344.008 35.7422 343.07 36.3828C342.148 37.0234 341.055 37.5156 339.789 37.8594C338.539 38.1875 337.148 38.3516 335.617 38.3516Z" fill="black" style="fill:black;fill-opacity:1;"/>
</svg>
